<?xml version="1.0" encoding="utf-8"?>
<!-- Generator: Adobe Illustrator 22.1.0, SVG Export Plug-In . SVG Version: 6.00 Build 0)  -->
<svg version="1.1" id="Layer_1" xmlns="http://www.w3.org/2000/svg" xmlns:xlink="http://www.w3.org/1999/xlink" x="0px" y="0px"
	 viewBox="0 0 60 60" style="enable-background:new 0 0 60 60;" xml:space="preserve">
<style type="text/css">
	.st0{fill:#FBBA00;}
	.st1{fill:#1D1D1B;}
</style>
<g>
	<polygon class="st0" points="57.545,6.978 57.545,53.022 11.501,53.022 	"/>
	<g>
		<g>
			<path class="st1" d="M53.947,41.583h-2.613c-0.538,0-0.973-0.435-0.973-0.973s0.435-0.973,0.973-0.973h1.64V15.452H11.369v1.64
				c0,0.537-0.436,0.973-0.973,0.973s-0.973-0.436-0.973-0.973v-2.613c0-0.537,0.436-0.973,0.973-0.973h43.551
				c0.538,0,0.973,0.436,0.973,0.973v26.131C54.92,41.148,54.485,41.583,53.947,41.583z"/>
		</g>
		<g>
			<path class="st1" d="M46.978,48.551H3.428c-0.537,0-0.973-0.435-0.973-0.973V21.447c0-0.537,0.436-0.973,0.973-0.973h43.551
				c0.538,0,0.973,0.436,0.973,0.973v26.131C47.951,48.116,47.516,48.551,46.978,48.551z M4.401,46.605h41.605V22.42H4.401V46.605z"
				/>
		</g>
		<g>
			<path class="st1" d="M25.204,36.505c-0.184,0-0.368-0.052-0.528-0.156L2.9,22.264c-0.451-0.292-0.58-0.894-0.289-1.345
				c0.293-0.451,0.895-0.58,1.345-0.289l21.248,13.743L46.45,20.63c0.452-0.293,1.054-0.162,1.345,0.289
				c0.292,0.451,0.162,1.053-0.289,1.345L25.732,36.349C25.571,36.452,25.387,36.505,25.204,36.505z"/>
		</g>
	</g>
</g>
</svg>
