<?xml version="1.0" encoding="utf-8"?>
<!-- Generator: Adobe Illustrator 22.1.0, SVG Export Plug-In . SVG Version: 6.00 Build 0)  -->
<svg version="1.1" id="Layer_1" xmlns="http://www.w3.org/2000/svg" xmlns:xlink="http://www.w3.org/1999/xlink" x="0px" y="0px"
	 viewBox="0 0 60 60" style="enable-background:new 0 0 60 60;" xml:space="preserve">
<style type="text/css">
	.st0{fill:#FFFFFF;}
</style>
<g>
	<g>
		<path class="st0" d="M1.396,59.723c-0.286,0-0.573-0.109-0.791-0.328c-0.437-0.437-0.437-1.145,0-1.582L57.813,0.605
			c0.437-0.437,1.145-0.437,1.582,0c0.437,0.437,0.437,1.145,0,1.582L2.187,59.395C1.969,59.614,1.682,59.723,1.396,59.723z"/>
	</g>
	<g>
		<path class="st0" d="M58.604,59.723c-0.286,0-0.573-0.109-0.791-0.328L0.605,2.187c-0.437-0.437-0.437-1.145,0-1.582
			s1.145-0.437,1.582,0l57.208,57.208c0.437,0.437,0.437,1.145,0,1.582C59.176,59.614,58.89,59.723,58.604,59.723z"/>
	</g>
</g>
</svg>
