<?xml version="1.0" encoding="utf-8"?>
<!-- Generator: Adobe Illustrator 22.1.0, SVG Export Plug-In . SVG Version: 6.00 Build 0)  -->
<svg version="1.1" id="Layer_1" xmlns="http://www.w3.org/2000/svg" xmlns:xlink="http://www.w3.org/1999/xlink" x="0px" y="0px"
	 viewBox="0 0 60 60" style="enable-background:new 0 0 60 60;" xml:space="preserve">
<style type="text/css">
	.st0{fill:#FBBA00;}
	.st1{fill:#1D1D1B;}
</style>
<g>
	<polygon class="st0" points="50.59,13.438 50.59,59.482 4.547,59.482 	"/>
	<g>
		<path class="st1" d="M34.915,54.447H14.899c-2.438,0-4.422-2.002-4.422-4.462V4.98c0-2.461,1.984-4.463,4.422-4.463h20.016
			c2.438,0,4.422,2.002,4.422,4.463v7.281c0,0.552-0.447,1-1,1s-1-0.448-1-1V4.98c0-1.358-1.087-2.463-2.422-2.463H14.899
			c-1.335,0-2.422,1.105-2.422,2.463v45.005c0,1.357,1.086,2.462,2.422,2.462h20.016c1.335,0,2.422-1.104,2.422-2.462v-7.281
			c0-0.553,0.447-1,1-1s1,0.447,1,1v7.281C39.337,52.445,37.354,54.447,34.915,54.447z M24.905,50.866
			c-2.031,0-3.684-1.653-3.684-3.686s1.652-3.686,3.684-3.686c2.034,0,3.688,1.653,3.688,3.686S26.939,50.866,24.905,50.866z
			 M24.905,45.495c-0.928,0-1.684,0.756-1.684,1.686s0.755,1.686,1.684,1.686c0.931,0,1.688-0.756,1.688-1.686
			S25.836,45.495,24.905,45.495z M33.861,41.018c-0.114,0-0.229-0.02-0.341-0.06c-0.396-0.144-0.659-0.52-0.659-0.94v-4.372h-3.477
			c-1.045,0-1.896-0.85-1.896-1.895V18.53c0-1.045,0.851-1.895,1.896-1.895h24.174c1.045,0,1.896,0.85,1.896,1.895v15.221
			c0,1.045-0.851,1.895-1.896,1.895H38.806l-4.177,5.013C34.435,40.891,34.152,41.018,33.861,41.018z M34.861,34.646v2.61
			l2.703-3.244c0.009-0.012,0.019-0.022,0.028-0.033c0.093-0.104,0.203-0.184,0.322-0.239c0.118-0.056,0.249-0.088,0.387-0.093
			c0.013-0.001,0.027-0.002,0.044-0.001h15.108V18.635H29.488v15.011h4.373C34.413,33.646,34.861,34.093,34.861,34.646z
			 M28.488,7.89h-7.162c-0.552,0-1-0.448-1-1s0.448-1,1-1h7.162c0.552,0,1,0.448,1,1S29.04,7.89,28.488,7.89z"/>
	</g>
</g>
</svg>
