<?xml version="1.0" encoding="utf-8"?>
<!-- Generator: Adobe Illustrator 22.1.0, SVG Export Plug-In . SVG Version: 6.00 Build 0)  -->
<svg version="1.1" id="Layer_1" xmlns="http://www.w3.org/2000/svg" xmlns:xlink="http://www.w3.org/1999/xlink" x="0px" y="0px"
	 viewBox="0 0 60 60" style="enable-background:new 0 0 60 60;" xml:space="preserve">
<style type="text/css">
	.st0{fill:#FFFFFF;}
</style>
<g>
	<g>
		<path class="st0" d="M3.673,59.596c-0.837,0-1.674-0.319-2.312-0.958c-1.278-1.278-1.278-3.347,0-4.625L54.014,1.362
			c1.278-1.278,3.347-1.278,4.625,0s1.278,3.347,0,4.625L5.986,58.638C5.347,59.277,4.51,59.596,3.673,59.596z"/>
	</g>
	<g>
		<path class="st0" d="M56.327,59.596c-0.837,0-1.674-0.319-2.312-0.958L1.361,5.986c-1.278-1.278-1.278-3.347,0-4.625
			s3.347-1.278,4.625,0l52.654,52.652c1.278,1.278,1.278,3.347,0,4.625C58,59.277,57.164,59.596,56.327,59.596z"/>
	</g>
</g>
</svg>
