<?xml version="1.0" encoding="utf-8"?>
<!-- Generator: Adobe Illustrator 22.1.0, SVG Export Plug-In . SVG Version: 6.00 Build 0)  -->
<svg version="1.1" id="Layer_1" xmlns="http://www.w3.org/2000/svg" xmlns:xlink="http://www.w3.org/1999/xlink" x="0px" y="0px"
	 viewBox="0 0 222.25 60" style="enable-background:new 0 0 222.25 60;" xml:space="preserve">
<style type="text/css">
	.st0{fill:#FFFFFF;}
</style>
<g>
	<g>
		<path class="st0" d="M47.257,29.67l-0.242-0.031c0.972-0.638,1.762-1.622,1.762-3.324V26.27c0-1.087-0.333-1.971-0.999-2.696
			c-0.832-0.906-2.143-1.405-3.807-1.405H40.68l-3.47,2.711v13.168h7.554c3.584,0,5.943-1.452,5.943-4.356v-0.045
			C50.707,31.516,49.303,29.93,47.257,29.67z M40.33,25.228h3.162c1.352,0,2.101,0.589,2.101,1.631v0.045
			c0,1.178-0.895,1.676-2.309,1.676H40.33V25.228z M47.237,33.263c0,1.18-0.93,1.724-2.473,1.724h-4.151v-3.493h4.038
			c1.792,0,2.586,0.658,2.586,1.724V33.263z"/>
	</g>
	<path class="st0" d="M10.475,22.17h3.493v6.284h6.443V22.17h3.493v13.107l-3.493,2.772v-6.374h-6.443v6.374h-3.493V22.17z"/>
	<path class="st0" d="M25.977,22.17h3.493v12.704h6.084v3.176h-9.577V22.17z"/>
	<path class="st0" d="M53.496,12.116L53.496,12.116C48.129,5.238,39.765,0.807,30.385,0.807c-16.157,0-29.302,13.145-29.302,29.302
		c0,2.74,0.379,5.393,1.086,7.91h4.221c-0.823-2.49-1.27-5.148-1.27-7.91c0-13.931,11.334-25.265,25.265-25.265
		c8.091,0,15.305,3.824,19.932,9.758h0c3.318,4.276,5.296,9.64,5.296,15.459c0,13.931-11.334,25.265-25.265,25.265
		c-8.032,0-15.201-3.768-19.832-9.629l-3.18,2.485c5.371,6.805,13.69,11.182,23.012,11.182c16.157,0,29.302-13.145,29.302-29.302
		C59.65,23.306,57.351,17.078,53.496,12.116z"/>
	<path class="st0" d="M6.389,38.02H2.168c0.006,0.02,0.011,0.04,0.016,0.059h4.224C6.402,38.059,6.396,38.039,6.389,38.02z"/>
	<path class="st0" d="M10.516,45.7l-3.18,2.484c0.012,0.016,0.025,0.031,0.037,0.046l3.18-2.485
		C10.541,45.73,10.528,45.715,10.516,45.7z"/>
</g>
<g>
	<path class="st0" d="M65.971,23.741h-2.125v-1.416h5.786v1.416h-2.125v5.566h-1.536V23.741z"/>
	<path class="st0" d="M70.908,22.325h1.536v2.763h2.833v-2.763h1.536v6.983h-1.536v-2.803h-2.833v2.803h-1.536V22.325z"/>
	<path class="st0" d="M78.588,22.325h5.267v1.367h-3.741v1.416h3.292v1.367h-3.292v1.466h3.791v1.367h-5.317V22.325z"/>
	<path class="st0" d="M88.152,25.836v-0.02c0-1.985,1.546-3.611,3.661-3.611c1.257,0,2.015,0.339,2.743,0.958l-0.968,1.167
		c-0.538-0.449-1.017-0.708-1.826-0.708c-1.117,0-2.005,0.988-2.005,2.175v0.02c0,1.277,0.878,2.214,2.115,2.214
		c0.559,0,1.057-0.14,1.446-0.419v-0.997h-1.546v-1.327h3.032v3.032c-0.718,0.609-1.706,1.107-2.982,1.107
		C89.648,29.427,88.152,27.901,88.152,25.836z"/>
	<path class="st0" d="M96.38,22.325h1.536v5.586h3.481v1.397H96.38V22.325z"/>
	<path class="st0" d="M101.945,25.836v-0.02c0-1.985,1.566-3.611,3.721-3.611c2.155,0,3.701,1.606,3.701,3.591v0.02
		c0,1.985-1.566,3.611-3.721,3.611C103.491,29.427,101.945,27.822,101.945,25.836z M107.761,25.836v-0.02
		c0-1.197-0.878-2.195-2.115-2.195s-2.095,0.978-2.095,2.175v0.02c0,1.197,0.878,2.194,2.115,2.194S107.761,27.033,107.761,25.836z"
		/>
	<path class="st0" d="M110.832,22.325h3.242c0.798,0,1.427,0.219,1.826,0.618c0.319,0.319,0.479,0.708,0.479,1.187v0.02
		c0,0.788-0.419,1.227-0.918,1.506c0.808,0.309,1.307,0.778,1.307,1.716v0.02c0,1.277-1.038,1.915-2.614,1.915h-3.322V22.325z
		 M114.852,24.39c0-0.459-0.359-0.718-1.008-0.718h-1.516v1.476h1.416c0.678,0,1.107-0.219,1.107-0.738V24.39z M114.103,26.425
		h-1.775v1.536h1.826c0.678,0,1.087-0.239,1.087-0.758v-0.02C115.241,26.714,114.892,26.425,114.103,26.425z"/>
	<path class="st0" d="M120.526,22.275h1.416l2.993,7.033h-1.606l-0.638-1.566h-2.953l-0.638,1.566h-1.566L120.526,22.275z
		 M122.142,26.385l-0.928-2.264l-0.928,2.264H122.142z"/>
	<path class="st0" d="M126.111,22.325h1.536v5.586h3.481v1.397h-5.018V22.325z"/>
	<path class="st0" d="M137.87,22.275h1.416l2.993,7.033h-1.606l-0.638-1.566h-2.953l-0.638,1.566h-1.566L137.87,22.275z
		 M139.486,26.385l-0.928-2.264l-0.928,2.264H139.486z"/>
	<path class="st0" d="M143.454,22.325h2.723c2.194,0,3.711,1.506,3.711,3.471v0.02c0,1.965-1.516,3.491-3.711,3.491h-2.723V22.325z
		 M144.991,23.712v4.21h1.187c1.257,0,2.105-0.848,2.105-2.085v-0.02c0-1.237-0.848-2.105-2.105-2.105H144.991z"/>
	<path class="st0" d="M150.306,22.325h1.696l1.826,4.918l1.826-4.918h1.656l-2.823,7.033h-1.357L150.306,22.325z"/>
	<path class="st0" d="M158.554,22.325h1.536v6.983h-1.536V22.325z"/>
	<path class="st0" d="M161.457,28.29l0.908-1.087c0.628,0.519,1.287,0.848,2.085,0.848c0.628,0,1.008-0.249,1.008-0.658v-0.02
		c0-0.389-0.24-0.589-1.406-0.888c-1.407-0.359-2.314-0.748-2.314-2.135v-0.02c0-1.267,1.018-2.105,2.444-2.105
		c1.017,0,1.885,0.319,2.594,0.888l-0.798,1.157c-0.618-0.429-1.227-0.688-1.816-0.688s-0.898,0.269-0.898,0.609v0.02
		c0,0.459,0.299,0.609,1.506,0.918c1.416,0.369,2.214,0.878,2.214,2.095v0.02c0,1.387-1.057,2.165-2.564,2.165
		C163.362,29.407,162.295,29.039,161.457,28.29z"/>
	<path class="st0" d="M168.109,25.836v-0.02c0-1.985,1.566-3.611,3.721-3.611c2.155,0,3.701,1.606,3.701,3.591v0.02
		c0,1.985-1.566,3.611-3.721,3.611C169.655,29.427,168.109,27.822,168.109,25.836z M173.925,25.836v-0.02
		c0-1.197-0.878-2.195-2.115-2.195s-2.095,0.978-2.095,2.175v0.02c0,1.197,0.878,2.194,2.115,2.194S173.925,27.033,173.925,25.836z"
		/>
	<path class="st0" d="M176.995,22.325h3.192c0.888,0,1.576,0.249,2.035,0.708c0.389,0.389,0.598,0.938,0.598,1.596v0.02
		c0,1.127-0.609,1.835-1.496,2.165l1.706,2.494h-1.796l-1.496-2.235h-1.207v2.235h-1.536V22.325z M180.088,25.717
		c0.748,0,1.177-0.399,1.177-0.987v-0.02c0-0.658-0.459-0.998-1.207-0.998h-1.526v2.005H180.088z"/>
	<path class="st0" d="M186.021,26.555l-2.683-4.23h1.796l1.666,2.803l1.696-2.803h1.746l-2.683,4.2v2.783h-1.536V26.555z"/>
	<path class="st0" d="M66.739,31.061h1.417l2.993,7.033h-1.606l-0.638-1.566h-2.953l-0.638,1.566h-1.566L66.739,31.061z
		 M68.355,35.171l-0.928-2.264L66.5,35.171H68.355z"/>
	<path class="st0" d="M72.324,31.111h1.416l3.272,4.299v-4.299h1.516v6.983h-1.307l-3.382-4.439v4.439h-1.516V31.111z"/>
	<path class="st0" d="M80.303,31.111h2.723c2.195,0,3.711,1.506,3.711,3.471v0.02c0,1.965-1.516,3.491-3.711,3.491h-2.723V31.111z
		 M81.839,32.498v4.21h1.187c1.257,0,2.105-0.848,2.105-2.085v-0.02c0-1.237-0.848-2.105-2.105-2.105H81.839z"/>
	<path class="st0" d="M93.688,31.061h1.416l2.993,7.033h-1.606l-0.638-1.566H92.9l-0.638,1.566h-1.566L93.688,31.061z
		 M95.304,35.171l-0.928-2.264l-0.928,2.264H95.304z"/>
	<path class="st0" d="M98.514,34.623v-0.02c0-1.985,1.496-3.611,3.641-3.611c1.317,0,2.105,0.439,2.753,1.077l-0.978,1.127
		c-0.539-0.489-1.087-0.788-1.785-0.788c-1.177,0-2.025,0.978-2.025,2.175v0.02c0,1.197,0.828,2.194,2.025,2.194
		c0.798,0,1.287-0.319,1.835-0.818l0.978,0.987c-0.718,0.768-1.516,1.247-2.863,1.247C100.041,38.214,98.514,36.628,98.514,34.623z"
		/>
	<path class="st0" d="M105.775,34.623v-0.02c0-1.985,1.496-3.611,3.641-3.611c1.317,0,2.105,0.439,2.753,1.077l-0.978,1.127
		c-0.539-0.489-1.087-0.788-1.785-0.788c-1.177,0-2.025,0.978-2.025,2.175v0.02c0,1.197,0.828,2.194,2.025,2.194
		c0.798,0,1.287-0.319,1.835-0.818l0.978,0.987c-0.718,0.768-1.516,1.247-2.863,1.247C107.301,38.214,105.775,36.628,105.775,34.623
		z"/>
	<path class="st0" d="M113.036,34.623v-0.02c0-1.985,1.566-3.611,3.721-3.611c2.155,0,3.701,1.606,3.701,3.591v0.02
		c0,1.985-1.566,3.611-3.721,3.611C114.582,38.214,113.036,36.608,113.036,34.623z M118.852,34.623v-0.02
		c0-1.197-0.878-2.195-2.115-2.195s-2.095,0.978-2.095,2.175v0.02c0,1.197,0.878,2.194,2.115,2.194S118.852,35.819,118.852,34.623z"
		/>
	<path class="st0" d="M121.813,35.101v-3.99h1.536v3.95c0,1.137,0.568,1.726,1.506,1.726c0.938,0,1.506-0.569,1.506-1.676v-4h1.536
		v3.94c0,2.115-1.187,3.152-3.062,3.152C122.96,38.204,121.813,37.156,121.813,35.101z"/>
	<path class="st0" d="M129.562,31.111h1.417l3.272,4.299v-4.299h1.516v6.983h-1.307l-3.382-4.439v4.439h-1.516V31.111z"/>
	<path class="st0" d="M139.167,32.528h-2.125v-1.416h5.786v1.416h-2.125v5.566h-1.536V32.528z"/>
	<path class="st0" d="M144.173,31.111h1.536v6.983h-1.536V31.111z"/>
	<path class="st0" d="M147.554,31.111h1.417l3.272,4.299v-4.299h1.516v6.983h-1.307l-3.382-4.439v4.439h-1.516V31.111z"/>
	<path class="st0" d="M155.224,34.623v-0.02c0-1.985,1.546-3.611,3.661-3.611c1.257,0,2.015,0.339,2.743,0.958l-0.968,1.167
		c-0.538-0.449-1.017-0.708-1.826-0.708c-1.117,0-2.005,0.988-2.005,2.175v0.02c0,1.277,0.878,2.214,2.115,2.214
		c0.559,0,1.057-0.14,1.446-0.419v-0.997h-1.546v-1.327h3.032v3.032c-0.718,0.609-1.706,1.107-2.982,1.107
		C156.72,38.214,155.224,36.687,155.224,34.623z"/>
	<path class="st0" d="M166.544,31.111h1.417l3.272,4.299v-4.299h1.516v6.983h-1.307l-3.382-4.439v4.439h-1.516V31.111z"/>
	<path class="st0" d="M174.522,31.111h5.267v1.367h-3.741v1.416h3.292v1.367h-3.292v1.466h3.791v1.367h-5.317V31.111z"/>
	<path class="st0" d="M182.93,32.528h-2.125v-1.416h5.786v1.416h-2.125v5.566h-1.536V32.528z"/>
	<path class="st0" d="M187.328,31.111h1.646l1.446,4.728l1.566-4.748h1.317l1.566,4.748l1.447-4.728h1.606l-2.384,7.033h-1.337
		l-1.576-4.569l-1.576,4.569h-1.337L187.328,31.111z"/>
	<path class="st0" d="M198.449,34.623v-0.02c0-1.985,1.566-3.611,3.721-3.611c2.155,0,3.701,1.606,3.701,3.591v0.02
		c0,1.985-1.566,3.611-3.721,3.611C199.995,38.214,198.449,36.608,198.449,34.623z M204.265,34.623v-0.02
		c0-1.197-0.878-2.195-2.115-2.195s-2.095,0.978-2.095,2.175v0.02c0,1.197,0.878,2.194,2.115,2.194S204.265,35.819,204.265,34.623z"
		/>
	<path class="st0" d="M207.335,31.111h3.192c0.888,0,1.576,0.249,2.035,0.708c0.389,0.389,0.599,0.938,0.599,1.596v0.02
		c0,1.127-0.609,1.835-1.496,2.165l1.706,2.494h-1.796l-1.496-2.235h-1.207v2.235h-1.536V31.111z M210.428,34.503
		c0.748,0,1.177-0.399,1.177-0.987v-0.02c0-0.658-0.459-0.998-1.207-0.998h-1.526v2.005H210.428z"/>
	<path class="st0" d="M214.646,31.111h1.536v3.052l2.833-3.052h1.855l-2.843,2.963l2.972,4.02h-1.845l-2.165-2.973l-0.808,0.838
		v2.135h-1.536V31.111z"/>
</g>
</svg>
