<?xml version="1.0" encoding="utf-8"?>
<!-- Generator: Adobe Illustrator 22.1.0, SVG Export Plug-In . SVG Version: 6.00 Build 0)  -->
<svg version="1.1" id="Layer_1" xmlns="http://www.w3.org/2000/svg" xmlns:xlink="http://www.w3.org/1999/xlink" x="0px" y="0px"
	 viewBox="0 0 60 60" style="enable-background:new 0 0 60 60;" xml:space="preserve">
<style type="text/css">
	.st0{fill:#FFFFFF;}
</style>
<g>
	<g>
		<path class="st0" d="M27.333,53.785c-14.717,0-26.689-11.974-26.689-26.691S12.617,0.403,27.333,0.403
			c14.717,0,26.69,11.973,26.69,26.691C54.023,41.811,42.05,53.785,27.333,53.785z M27.333,2.902
			c-13.339,0-24.191,10.853-24.191,24.192s10.852,24.192,24.191,24.192s24.191-10.853,24.191-24.192S40.672,2.902,27.333,2.902z"/>
	</g>
	<g>
		<path class="st0" d="M58.107,59.596c-0.32,0-0.639-0.122-0.883-0.366L44.162,46.167c-0.488-0.488-0.488-1.279,0-1.766
			c0.488-0.488,1.278-0.488,1.766,0L58.99,57.464c0.488,0.488,0.488,1.278,0,1.766C58.746,59.474,58.427,59.596,58.107,59.596z"/>
	</g>
</g>
</svg>
