<?xml version="1.0" encoding="utf-8"?>
<!-- Generator: Adobe Illustrator 22.1.0, SVG Export Plug-In . SVG Version: 6.00 Build 0)  -->
<svg version="1.1" id="Layer_1" xmlns="http://www.w3.org/2000/svg" xmlns:xlink="http://www.w3.org/1999/xlink" x="0px" y="0px"
	 viewBox="0 0 60 60" style="enable-background:new 0 0 60 60;" xml:space="preserve">
<style type="text/css">
	.st0{fill:#FFFFFF;}
</style>
<g>
	<g>
		<path class="st0" d="M18.184,27.857c-0.36,0-0.712-0.183-0.913-0.513c-0.306-0.504-0.145-1.16,0.358-1.465l23.906-14.51
			c0.504-0.305,1.16-0.144,1.464,0.358c0.306,0.504,0.146,1.16-0.358,1.465l-23.905,14.51
			C18.564,27.807,18.373,27.857,18.184,27.857z"/>
	</g>
	<g>
		<path class="st0" d="M42.086,48.786c-0.189,0-0.379-0.05-0.552-0.155L17.63,34.121c-0.504-0.305-0.664-0.961-0.358-1.464
			c0.306-0.504,0.961-0.664,1.465-0.358L42.64,46.808c0.504,0.305,0.664,0.961,0.358,1.464
			C42.799,48.603,42.447,48.786,42.086,48.786z"/>
	</g>
	<g>
		<path class="st0" d="M48.172,16.773c-4.514,0-8.186-3.672-8.186-8.185c0-4.513,3.672-8.185,8.186-8.185
			c4.513,0,8.185,3.672,8.185,8.185C56.357,13.102,52.685,16.773,48.172,16.773z M48.172,2.537c-3.338,0-6.053,2.715-6.053,6.052
			s2.715,6.052,6.053,6.052c3.337,0,6.052-2.715,6.052-6.052S51.509,2.537,48.172,2.537z"/>
	</g>
	<g>
		<path class="st0" d="M48.172,59.596c-4.514,0-8.186-3.672-8.186-8.185s3.672-8.185,8.186-8.185c4.513,0,8.185,3.672,8.185,8.185
			S52.685,59.596,48.172,59.596z M48.172,45.359c-3.338,0-6.053,2.715-6.053,6.052s2.715,6.052,6.053,6.052
			c3.337,0,6.052-2.715,6.052-6.052S51.509,45.359,48.172,45.359z"/>
	</g>
	<g>
		<path class="st0" d="M11.829,38.185c-4.514,0-8.186-3.672-8.186-8.185c0-4.513,3.672-8.185,8.186-8.185
			c4.513,0,8.185,3.672,8.185,8.185C20.015,34.513,16.343,38.185,11.829,38.185z M11.829,23.948c-3.338,0-6.053,2.715-6.053,6.052
			s2.716,6.052,6.053,6.052c3.337,0,6.052-2.715,6.052-6.052S15.166,23.948,11.829,23.948z"/>
	</g>
</g>
</svg>
